<svg xmlns="http://www.w3.org/2000/svg" xmlns:xlink="http://www.w3.org/1999/xlink" viewBox="0 0 32 24"><defs><mask id="mantine-3658v6qmb" fill="#fff"><path fill-rule="evenodd" d="M0 0h32v24H0z"/></mask><mask id="mantine-phqaoi40k" fill="#fff"><use fill-rule="evenodd" xlink:href="#mantine-nwif3snw2"/></mask><path id="mantine-nwif3snw2" d="M0 0h32v24H0z"/></defs><g fill="none" fill-rule="evenodd" mask="url(#mantine-3658v6qmb)"><use fill="#f50100" xlink:href="#mantine-nwif3snw2"/><g fill="#ffd018"><path d="M18 14.024l14 5.952v4.084h-3.255zM14 14L3.255 24.035H0v-4.084zm2-2l3 12h-6zm16-3v6l-12-3zM0 9l12 3-12 3zm19-9l-3 12-3-12zm13-.018v4.084l-14 5.952L28.745-.018zM3.255-.042L14 9.993 0 4.042V-.042z" mask="url(#mantine-phqaoi40k)"/><circle cx="16" cy="12" r="5" stroke="#f50100" stroke-width="2" mask="url(#mantine-phqaoi40k)"/></g></g></svg>